<mxfile host="app.diagrams.net" modified="2024-04-06T03:43:06.529Z" agent="Mozilla/5.0 (Windows NT 10.0; Win64; x64) AppleWebKit/537.36 (KHTML, like Gecko) Chrome/121.0.0.0 Safari/537.36 OPR/107.0.0.0" version="24.2.2" etag="ZpksFbBzCuylKgM4pdFO" type="github">
  <diagram name="Страница — 1" id="VIgbdfj8-7CWMre5hS0O">
    <mxGraphModel>
      <root>
        <mxCell id="0" />
        <mxCell id="1" parent="0" />
      </root>
    </mxGraphModel>
  </diagram>
</mxfile>
